<svg id="visual" viewBox="0 0 900 600" width="900" height="600" xmlns="http://www.w3.org/2000/svg" xmlns:xlink="http://www.w3.org/1999/xlink" version="1.1"><rect x="0" y="0" width="900" height="600" fill="#002233"></rect><path d="M0 320L16.7 334C33.3 348 66.7 376 100 380C133.3 384 166.7 364 200 348.2C233.3 332.3 266.7 320.7 300 315.7C333.3 310.7 366.7 312.3 400 337C433.3 361.7 466.7 409.3 500 434.5C533.3 459.7 566.7 462.3 600 442.8C633.3 423.3 666.7 381.7 700 376.7C733.3 371.7 766.7 403.3 800 400C833.3 396.7 866.7 358.3 883.3 339.2L900 320L900 601L883.3 601C866.7 601 833.3 601 800 601C766.7 601 733.3 601 700 601C666.7 601 633.3 601 600 601C566.7 601 533.3 601 500 601C466.7 601 433.3 601 400 601C366.7 601 333.3 601 300 601C266.7 601 233.3 601 200 601C166.7 601 133.3 601 100 601C66.7 601 33.3 601 16.7 601L0 601Z" fill="#403dc6" stroke-linecap="round" stroke-linejoin="miter"></path></svg>